<?xml version="1.0" standalone="no"?>
<!DOCTYPE svg PUBLIC "-//W3C//DTD SVG 20010904//EN"
 "http://www.w3.org/TR/2001/REC-SVG-20010904/DTD/svg10.dtd">
<svg version="1.0" xmlns="http://www.w3.org/2000/svg"
 width="558.000000pt" height="558.000000pt" viewBox="0 0 558.000000 558.000000"
 preserveAspectRatio="xMidYMid meet">
<metadata>
Created by potrace 1.14, written by Peter Selinger 2001-2017
</metadata>
<g transform="translate(0.000000,558.000000) scale(0.100000,-0.100000)"
fill="#000000" stroke="none">
<path d="M2589 5566 c-2 -2 -38 -7 -79 -10 -397 -35 -837 -185 -1190 -404 -90
-56 -228 -153 -266 -187 -7 -5 -31 -25 -55 -44 -24 -19 -111 -103 -194 -185
-310 -312 -514 -642 -660 -1066 -32 -92 -88 -309 -99 -380 -3 -19 -10 -62 -16
-95 -32 -189 -35 -617 -5 -785 2 -14 7 -43 10 -65 7 -51 41 -214 56 -268 6
-23 11 -42 10 -42 -4 0 81 -241 108 -309 93 -232 247 -489 419 -701 60 -75
289 -309 357 -365 445 -371 994 -600 1550 -648 105 -9 418 -9 520 0 67 6 246
34 334 52 394 82 827 290 1158 557 91 74 336 315 388 383 17 21 35 44 40 50
23 24 103 135 146 201 216 331 360 697 419 1065 7 41 14 84 16 94 25 136 25
604 0 741 -2 11 -6 41 -10 66 -26 179 -97 434 -173 619 -92 224 -249 489 -401
680 -82 103 -303 329 -392 402 -336 275 -700 460 -1105 563 -84 21 -264 55
-380 70 -51 7 -500 16 -506 11z m53 -623 c2 -115 1 -232 -2 -262 l-5 -54 -228
226 -228 225 68 16 c109 24 276 50 350 54 l42 2 3 -207z m443 192 c86 -10 115
-17 116 -28 0 -7 3 -401 5 -877 l5 -865 -38 -37 -38 -38 -60 25 c-33 14 -77
28 -97 31 -21 4 -39 9 -39 13 -5 23 -14 1720 -10 1780 1 13 18 12 156 -4z
m542 -131 c54 -20 102 -40 106 -44 5 -4 10 -243 11 -531 l3 -524 -133 -135
-134 -135 -1 125 c0 69 -2 388 -4 709 l-3 583 28 -6 c16 -3 73 -22 127 -42z
m-1357 -393 l375 -370 0 -185 c0 -103 -3 -185 -6 -184 -12 5 -999 981 -999
988 0 8 229 118 245 119 6 1 179 -165 385 -368z m1862 136 c145 -97 248 -179
245 -194 -3 -15 -343 -363 -354 -363 -4 0 -9 142 -11 315 -1 173 1 315 5 315
5 0 56 -33 115 -73z m-2161 -597 c309 -305 588 -581 620 -613 l59 -59 0 -69 0
-68 -76 -36 c-42 -19 -80 -35 -83 -35 -6 0 -221 210 -913 895 l-387 383 32 29
c78 68 169 134 179 131 4 -2 260 -253 569 -558z m2650 178 c54 -63 151 -189
148 -193 -2 -2 -280 -283 -618 -624 l-614 -621 -43 0 c-39 0 -44 3 -50 28 -4
15 -25 62 -47 105 -22 43 -38 80 -36 82 48 51 1233 1245 1236 1245 3 0 14 -10
24 -22z m-3455 -171 c96 -94 171 -173 168 -176 -9 -9 -614 -7 -614 2 0 12 112
178 172 256 73 93 81 101 91 94 5 -3 88 -82 183 -176z m3798 -350 c24 -51 49
-110 57 -130 l13 -37 -59 -61 c-33 -33 -199 -201 -369 -372 l-308 -312 -189
-1 c-105 -1 -189 0 -187 1 74 78 993 1005 995 1005 2 0 23 -42 47 -93z m-3216
-226 c72 -71 132 -131 132 -133 0 -3 -156 -6 -347 -7 -192 -1 -507 -3 -700 -4
-194 -2 -353 -2 -353 -1 0 7 69 204 82 234 l15 35 519 3 519 3 133 -130z
m3391 -288 c24 -110 35 -183 47 -320 l6 -73 -84 -1 c-45 0 -160 -1 -255 -2
-95 -1 -169 2 -166 7 10 16 428 435 435 435 3 1 11 -20 17 -46z m-2918 -179
l62 -62 -26 -53 c-13 -30 -28 -64 -31 -76 -7 -21 -14 -23 -74 -23 -37 -1 -449
-3 -915 -6 l-849 -5 6 78 c3 43 8 92 11 108 3 17 7 44 10 61 l6 32 526 1 c290
1 528 3 529 4 1 1 156 2 343 2 l341 0 61 -61z m730 -154 c190 -97 196 -356 12
-466 -42 -26 -58 -29 -128 -29 -63 0 -89 5 -121 22 -116 62 -170 199 -129 324
23 68 93 138 161 162 61 21 148 15 205 -13z m2233 -370 c0 -22 -6 -72 -21
-190 -2 -19 -5 -41 -5 -47 -1 -7 -11 -13 -22 -14 -12 0 -403 -3 -870 -5 l-849
-5 -24 27 c-20 24 -21 29 -9 43 18 20 43 79 65 151 l17 55 585 3 c321 1 595 3
609 5 14 1 138 2 275 2 l250 0 -1 -25z m-4289 1 c28 -1 14 -17 -195 -226 -218
-218 -225 -224 -232 -198 -21 75 -58 266 -63 328 -4 39 -8 75 -8 80 -2 10 284
22 413 18 30 -1 68 -2 85 -2z m785 1 c0 -1 -209 -213 -464 -470 -256 -257
-473 -477 -484 -489 -11 -13 -24 -23 -30 -23 -9 0 -114 200 -124 237 -2 6 162
177 364 380 l366 368 186 1 c102 0 186 -2 186 -4z m534 -24 c4 -18 17 -60 31
-93 l24 -59 -348 -351 c-192 -192 -471 -473 -619 -622 -149 -150 -275 -273
-280 -273 -10 0 -78 76 -141 158 l-33 43 350 352 c193 194 467 470 610 615
l261 262 69 0 70 0 6 -32z m294 -392 c20 -14 57 -32 82 -42 25 -9 49 -21 55
-26 6 -5 10 -131 11 -326 1 -174 3 -558 5 -852 l2 -535 -43 0 c-35 0 -86 5
-230 24 -5 1 -7 282 -10 1285 l-1 409 23 25 c23 26 61 61 66 62 1 0 19 -11 40
-24z m980 -320 c174 -173 445 -440 602 -595 183 -179 281 -283 275 -289 -6 -5
-54 -44 -109 -86 l-99 -77 -30 28 c-33 31 -259 254 -811 801 l-377 373 3 41
c3 40 4 41 54 54 28 7 73 24 100 37 27 14 55 25 62 26 8 1 156 -140 330 -313z
m1587 187 c-14 -57 -87 -235 -99 -239 -6 -2 -237 -5 -513 -7 l-502 -3 -132
132 c-72 72 -126 133 -120 135 6 2 318 5 692 7 l681 2 -7 -27z m-2962 -881 c2
-369 2 -674 -1 -676 -2 -3 -54 13 -116 35 -61 22 -119 43 -128 46 -15 4 -18
18 -19 82 0 42 -2 267 -4 501 l-2 425 130 132 c72 73 132 131 134 130 1 -2 4
-306 6 -675z m1127 171 c146 -143 356 -351 468 -461 111 -110 202 -202 202
-205 0 -9 -231 -117 -251 -117 -4 0 -167 157 -361 349 l-353 349 0 186 c-1
167 0 184 14 173 9 -7 135 -130 281 -274z m1541 110 c-70 -102 -189 -253 -200
-253 -7 0 -305 291 -329 322 -13 16 6 17 288 18 l301 0 -60 -87z m-3205 -439
c1 -156 -2 -284 -6 -284 -18 0 -257 167 -311 217 l-26 24 166 168 c91 92 168
166 171 164 2 -2 5 -132 6 -289z m1687 -448 c53 -53 97 -98 97 -100 0 -2 -51
-13 -112 -25 -109 -20 -131 -23 -245 -36 l-53 -6 0 238 0 238 108 -107 c59
-58 151 -149 205 -202z"/>
</g>
</svg>
